<mxfile host="Electron" modified="2023-04-23T13:18:36.260Z" agent="Mozilla/5.0 (Windows NT 10.0; Win64; x64) AppleWebKit/537.36 (KHTML, like Gecko) draw.io/21.1.2 Chrome/106.0.5249.199 Electron/21.4.3 Safari/537.36" etag="dChGFnzY7uDXRId4ivzW" version="21.1.2" type="device">
  <diagram id="5rwaiKbXUgmin0ZkIKxY" name="Page-1">
    <mxGraphModel dx="2572" dy="1470" grid="1" gridSize="10" guides="1" tooltips="1" connect="1" arrows="1" fold="1" page="1" pageScale="1" pageWidth="1169" pageHeight="827" math="0" shadow="0">
      <root>
        <mxCell id="0" />
        <mxCell id="1" parent="0" />
        <mxCell id="El3161oQZ6qWwcSS69Vg-1" value="" style="endArrow=classic;dashed=1;html=1;rounded=1;endFill=1;exitX=0.5;exitY=0;exitDx=0;exitDy=0;fillColor=#f8cecc;strokeColor=#b85450;entryX=0;entryY=0.5;entryDx=0;entryDy=0;" edge="1" parent="1" source="Xp-5jpPCzl7pwucPQ0te-7" target="Xp-5jpPCzl7pwucPQ0te-24">
          <mxGeometry width="50" height="50" relative="1" as="geometry">
            <mxPoint x="310" y="720" as="sourcePoint" />
            <mxPoint x="300" y="170" as="targetPoint" />
            <Array as="points">
              <mxPoint x="300" y="170" />
            </Array>
          </mxGeometry>
        </mxCell>
        <mxCell id="Hp_MBzX7ffgGUqmoJXSf-1" value="" style="endArrow=none;html=1;rounded=0;dashed=1;startArrow=classic;startFill=1;endFill=0;dashPattern=8 8;strokeColor=#CCCCCC;entryX=0.327;entryY=0.997;entryDx=0;entryDy=0;entryPerimeter=0;exitX=0.832;exitY=0.033;exitDx=0;exitDy=0;exitPerimeter=0;" parent="1" source="Xp-5jpPCzl7pwucPQ0te-10" target="Hp_MBzX7ffgGUqmoJXSf-5" edge="1">
          <mxGeometry width="50" height="50" relative="1" as="geometry">
            <mxPoint x="560" y="390" as="sourcePoint" />
            <mxPoint x="691" y="200" as="targetPoint" />
          </mxGeometry>
        </mxCell>
        <mxCell id="5w1QuqMk3YBk4aArFpf6-6" value="" style="endArrow=none;dashed=1;html=1;rounded=0;endFill=0;entryX=0.314;entryY=0.997;entryDx=0;entryDy=0;exitX=0.325;exitY=-0.036;exitDx=0;exitDy=0;exitPerimeter=0;entryPerimeter=0;startArrow=classic;startFill=1;fillColor=#a20025;strokeColor=#6F0000;" parent="1" source="Xp-5jpPCzl7pwucPQ0te-22" target="5w1QuqMk3YBk4aArFpf6-4" edge="1">
          <mxGeometry width="50" height="50" relative="1" as="geometry">
            <mxPoint x="1010" y="340" as="sourcePoint" />
            <mxPoint x="1010" y="120" as="targetPoint" />
            <Array as="points" />
          </mxGeometry>
        </mxCell>
        <mxCell id="5w1QuqMk3YBk4aArFpf6-3" value="" style="endArrow=none;dashed=1;html=1;rounded=0;entryX=0.603;entryY=0.981;entryDx=0;entryDy=0;endFill=0;entryPerimeter=0;exitX=0.603;exitY=0;exitDx=0;exitDy=0;exitPerimeter=0;startArrow=classic;startFill=1;" parent="1" source="5w1QuqMk3YBk4aArFpf6-1" target="Xp-5jpPCzl7pwucPQ0te-11" edge="1">
          <mxGeometry width="50" height="50" relative="1" as="geometry">
            <mxPoint x="1070" y="710" as="sourcePoint" />
            <mxPoint x="1070" y="540" as="targetPoint" />
          </mxGeometry>
        </mxCell>
        <mxCell id="9q41cPFKPi31SnrlVuMK-32" value="" style="endArrow=classic;dashed=1;html=1;rounded=1;entryX=0.75;entryY=1;entryDx=0;entryDy=0;endFill=1;fillColor=#f8cecc;strokeColor=#b85450;" parent="1" target="Xp-5jpPCzl7pwucPQ0te-8" edge="1">
          <mxGeometry width="50" height="50" relative="1" as="geometry">
            <mxPoint x="860" y="680" as="sourcePoint" />
            <mxPoint x="850" y="400" as="targetPoint" />
            <Array as="points">
              <mxPoint x="890" y="680" />
            </Array>
          </mxGeometry>
        </mxCell>
        <mxCell id="Xp-5jpPCzl7pwucPQ0te-1" value="8 Channel - ADC&lt;br&gt;MCP3008" style="rounded=0;whiteSpace=wrap;html=1;fillColor=#ffe6cc;strokeColor=#d79b00;" parent="1" vertex="1">
          <mxGeometry x="360" y="240" width="120" height="60" as="geometry" />
        </mxCell>
        <mxCell id="Xp-5jpPCzl7pwucPQ0te-2" value="8 Channel - ADC&lt;br&gt;MCP3008" style="rounded=0;whiteSpace=wrap;html=1;fillColor=#ffe6cc;strokeColor=#d79b00;" parent="1" vertex="1">
          <mxGeometry x="520" y="240" width="120" height="60" as="geometry" />
        </mxCell>
        <mxCell id="Xp-5jpPCzl7pwucPQ0te-3" value="16 Channel - IO&lt;br&gt;MCP23S17" style="rounded=0;whiteSpace=wrap;html=1;fillColor=#ffe6cc;strokeColor=#d79b00;" parent="1" vertex="1">
          <mxGeometry x="640" y="400" width="120" height="60" as="geometry" />
        </mxCell>
        <mxCell id="Xp-5jpPCzl7pwucPQ0te-4" value="RS232 Converter&lt;br&gt;MAX3232CPE" style="rounded=0;whiteSpace=wrap;html=1;fillColor=#dae8fc;strokeColor=#6c8ebf;" parent="1" vertex="1">
          <mxGeometry x="240" y="400" width="120" height="60" as="geometry" />
        </mxCell>
        <mxCell id="Xp-5jpPCzl7pwucPQ0te-5" value="RS232 Connector&lt;br&gt;ATMEL" style="rounded=1;whiteSpace=wrap;html=1;fillColor=#f5f5f5;fontColor=#333333;strokeColor=#666666;" parent="1" vertex="1">
          <mxGeometry x="60" y="300" width="120" height="60" as="geometry" />
        </mxCell>
        <mxCell id="Xp-5jpPCzl7pwucPQ0te-6" value="RS232 Connector&lt;br&gt;Raspberry Pi" style="rounded=1;whiteSpace=wrap;html=1;fillColor=#f5f5f5;fontColor=#333333;strokeColor=#666666;" parent="1" vertex="1">
          <mxGeometry x="60" y="505" width="120" height="60" as="geometry" />
        </mxCell>
        <mxCell id="Xp-5jpPCzl7pwucPQ0te-7" value="DC/DC Converter&lt;br&gt;+5V" style="rounded=0;whiteSpace=wrap;html=1;fillColor=#f8cecc;strokeColor=#b85450;" parent="1" vertex="1">
          <mxGeometry x="240" y="590" width="120" height="60" as="geometry" />
        </mxCell>
        <mxCell id="Xp-5jpPCzl7pwucPQ0te-8" value="8 Ch - Output Driver&lt;br&gt;ULN2803" style="rounded=0;whiteSpace=wrap;html=1;fillColor=#ffe6cc;strokeColor=#d79b00;" parent="1" vertex="1">
          <mxGeometry x="800" y="321" width="120" height="60" as="geometry" />
        </mxCell>
        <mxCell id="Xp-5jpPCzl7pwucPQ0te-10" value="Microcontroller&lt;br&gt;ATMEGA1284P" style="rounded=0;whiteSpace=wrap;html=1;fillColor=#d5e8d4;strokeColor=#82b366;" parent="1" vertex="1">
          <mxGeometry x="424.5" y="390" width="160" height="80" as="geometry" />
        </mxCell>
        <mxCell id="Xp-5jpPCzl7pwucPQ0te-11" value="8x Relais" style="rounded=0;whiteSpace=wrap;html=1;fillColor=#fa6800;strokeColor=#C73500;dashed=1;dashPattern=1 2;fontColor=#000000;" parent="1" vertex="1">
          <mxGeometry x="980" y="321" width="120" height="60" as="geometry" />
        </mxCell>
        <mxCell id="Xp-5jpPCzl7pwucPQ0te-12" value="8 Ch - IO Driver 74HC244" style="rounded=0;whiteSpace=wrap;html=1;fillColor=#ffe6cc;strokeColor=#d79b00;" parent="1" vertex="1">
          <mxGeometry x="640" y="590" width="120" height="60" as="geometry" />
        </mxCell>
        <mxCell id="Xp-5jpPCzl7pwucPQ0te-13" value="8 Ch - Output Driver&lt;br&gt;ULN2803" style="rounded=0;whiteSpace=wrap;html=1;fillColor=#ffe6cc;strokeColor=#d79b00;" parent="1" vertex="1">
          <mxGeometry x="800" y="480" width="120" height="60" as="geometry" />
        </mxCell>
        <mxCell id="Xp-5jpPCzl7pwucPQ0te-14" value="&lt;font color=&quot;#000000&quot;&gt;GPIO&lt;br&gt;Raspberry Pi&lt;br&gt;+3.3V&lt;/font&gt;" style="rounded=1;whiteSpace=wrap;html=1;fillColor=#1ba1e2;strokeColor=#006EAF;glass=0;shadow=0;fontColor=#ffffff;sketch=1;curveFitting=1;jiggle=2;" parent="1" vertex="1">
          <mxGeometry x="60" y="400" width="120" height="60" as="geometry" />
        </mxCell>
        <mxCell id="Xp-5jpPCzl7pwucPQ0te-15" value="Power Connector&lt;br&gt;+12V" style="rounded=1;whiteSpace=wrap;html=1;fillColor=#f8cecc;strokeColor=#b85450;" parent="1" vertex="1">
          <mxGeometry x="240" y="710" width="120" height="60" as="geometry" />
        </mxCell>
        <mxCell id="Xp-5jpPCzl7pwucPQ0te-16" value="Real Time Clock&lt;br&gt;DS1307" style="rounded=0;whiteSpace=wrap;html=1;fillColor=#fff2cc;strokeColor=#d6b656;" parent="1" vertex="1">
          <mxGeometry x="438" y="590" width="120" height="60" as="geometry" />
        </mxCell>
        <mxCell id="Xp-5jpPCzl7pwucPQ0te-17" value="Battery" style="rounded=1;whiteSpace=wrap;html=1;" parent="1" vertex="1">
          <mxGeometry x="438" y="710" width="120" height="60" as="geometry" />
        </mxCell>
        <mxCell id="Xp-5jpPCzl7pwucPQ0te-18" value="SD Card Connector&lt;br&gt;SPI Bus" style="rounded=1;whiteSpace=wrap;html=1;fillColor=#f5f5f5;fontColor=#333333;strokeColor=#666666;" parent="1" vertex="1">
          <mxGeometry x="60" y="40" width="120" height="60" as="geometry" />
        </mxCell>
        <mxCell id="Xp-5jpPCzl7pwucPQ0te-19" value="Ethernet Card Connector&lt;br&gt;SPI Bus" style="rounded=1;whiteSpace=wrap;html=1;shadow=0;fillColor=#f5f5f5;fontColor=#333333;strokeColor=#666666;" parent="1" vertex="1">
          <mxGeometry x="60" y="120" width="120" height="60" as="geometry" />
        </mxCell>
        <mxCell id="Xp-5jpPCzl7pwucPQ0te-23" value="8x Temperature Connector" style="rounded=1;whiteSpace=wrap;html=1;fillColor=#1ba1e2;fontColor=#ffffff;strokeColor=#006EAF;" parent="1" vertex="1">
          <mxGeometry x="360" y="40" width="120" height="60" as="geometry" />
        </mxCell>
        <mxCell id="Xp-5jpPCzl7pwucPQ0te-24" value="8x Voltage Divider" style="rounded=0;whiteSpace=wrap;html=1;fillColor=#e1d5e7;strokeColor=#9673a6;" parent="1" vertex="1">
          <mxGeometry x="360" y="140" width="120" height="60" as="geometry" />
        </mxCell>
        <mxCell id="Xp-5jpPCzl7pwucPQ0te-25" value="" style="endArrow=none;html=1;entryX=0.458;entryY=1.005;entryDx=0;entryDy=0;startArrow=none;entryPerimeter=0;exitX=0.5;exitY=0;exitDx=0;exitDy=0;" parent="1" source="Xp-5jpPCzl7pwucPQ0te-16" target="Xp-5jpPCzl7pwucPQ0te-10" edge="1">
          <mxGeometry width="50" height="50" relative="1" as="geometry">
            <mxPoint x="474.5" y="1160" as="sourcePoint" />
            <mxPoint x="474.5" y="1040" as="targetPoint" />
          </mxGeometry>
        </mxCell>
        <mxCell id="Xp-5jpPCzl7pwucPQ0te-26" value="I2C Bus" style="text;html=1;strokeColor=none;fillColor=none;align=center;verticalAlign=middle;whiteSpace=wrap;rounded=0;" parent="1" vertex="1">
          <mxGeometry x="498" y="520" width="60" height="30" as="geometry" />
        </mxCell>
        <mxCell id="Xp-5jpPCzl7pwucPQ0te-29" value="" style="endArrow=classic;html=1;rounded=0;entryX=0.5;entryY=1;entryDx=0;entryDy=0;dashed=1;startArrow=classic;startFill=1;endFill=1;" parent="1" source="Xp-5jpPCzl7pwucPQ0te-12" target="Xp-5jpPCzl7pwucPQ0te-3" edge="1">
          <mxGeometry width="50" height="50" relative="1" as="geometry">
            <mxPoint x="530" y="640" as="sourcePoint" />
            <mxPoint x="580" y="590" as="targetPoint" />
          </mxGeometry>
        </mxCell>
        <mxCell id="Xp-5jpPCzl7pwucPQ0te-30" value="4x IO Connector" style="rounded=1;whiteSpace=wrap;html=1;fillColor=#1ba1e2;fontColor=#ffffff;strokeColor=#006EAF;" parent="1" vertex="1">
          <mxGeometry x="640" y="710" width="120" height="60" as="geometry" />
        </mxCell>
        <mxCell id="Xp-5jpPCzl7pwucPQ0te-22" value="4x Relais" style="rounded=0;whiteSpace=wrap;html=1;fillColor=#fa6800;strokeColor=#C73500;dashed=1;dashPattern=1 2;fontColor=#000000;" parent="1" vertex="1">
          <mxGeometry x="980" y="480" width="120" height="60" as="geometry" />
        </mxCell>
        <mxCell id="9q41cPFKPi31SnrlVuMK-2" value="" style="endArrow=classic;dashed=1;html=1;rounded=0;entryX=0.5;entryY=1;entryDx=0;entryDy=0;exitX=0.5;exitY=0;exitDx=0;exitDy=0;endFill=1;" parent="1" source="Xp-5jpPCzl7pwucPQ0te-17" target="Xp-5jpPCzl7pwucPQ0te-16" edge="1">
          <mxGeometry width="50" height="50" relative="1" as="geometry">
            <mxPoint x="574.5" y="730" as="sourcePoint" />
            <mxPoint x="624.5" y="680" as="targetPoint" />
          </mxGeometry>
        </mxCell>
        <mxCell id="9q41cPFKPi31SnrlVuMK-3" value="" style="endArrow=classic;dashed=1;html=1;rounded=0;entryX=0.5;entryY=1;entryDx=0;entryDy=0;endFill=1;exitX=0.5;exitY=0;exitDx=0;exitDy=0;fillColor=#f8cecc;strokeColor=#b85450;" parent="1" source="Xp-5jpPCzl7pwucPQ0te-15" target="Xp-5jpPCzl7pwucPQ0te-7" edge="1">
          <mxGeometry width="50" height="50" relative="1" as="geometry">
            <mxPoint x="300" y="700" as="sourcePoint" />
            <mxPoint x="494" y="660" as="targetPoint" />
            <Array as="points">
              <mxPoint x="300" y="670" />
            </Array>
          </mxGeometry>
        </mxCell>
        <mxCell id="9q41cPFKPi31SnrlVuMK-4" value="" style="endArrow=none;dashed=1;html=1;rounded=0;entryX=1;entryY=0.5;entryDx=0;entryDy=0;exitX=0;exitY=0.5;exitDx=0;exitDy=0;startArrow=classic;startFill=1;" parent="1" source="Xp-5jpPCzl7pwucPQ0te-22" target="Xp-5jpPCzl7pwucPQ0te-13" edge="1">
          <mxGeometry width="50" height="50" relative="1" as="geometry">
            <mxPoint x="494" y="710" as="sourcePoint" />
            <mxPoint x="494" y="670" as="targetPoint" />
          </mxGeometry>
        </mxCell>
        <mxCell id="9q41cPFKPi31SnrlVuMK-5" value="" style="endArrow=none;dashed=1;html=1;rounded=0;entryX=1;entryY=0.5;entryDx=0;entryDy=0;startArrow=classic;startFill=1;" parent="1" source="Xp-5jpPCzl7pwucPQ0te-11" target="Xp-5jpPCzl7pwucPQ0te-8" edge="1">
          <mxGeometry width="50" height="50" relative="1" as="geometry">
            <mxPoint x="504" y="735" as="sourcePoint" />
            <mxPoint x="504" y="695" as="targetPoint" />
          </mxGeometry>
        </mxCell>
        <mxCell id="9q41cPFKPi31SnrlVuMK-6" value="" style="endArrow=none;dashed=1;html=1;rounded=0;entryX=0.5;entryY=1;entryDx=0;entryDy=0;startArrow=classic;startFill=1;" parent="1" source="Xp-5jpPCzl7pwucPQ0te-24" target="Xp-5jpPCzl7pwucPQ0te-23" edge="1">
          <mxGeometry width="50" height="50" relative="1" as="geometry">
            <mxPoint x="640" y="140" as="sourcePoint" />
            <mxPoint x="640" y="100" as="targetPoint" />
          </mxGeometry>
        </mxCell>
        <mxCell id="9q41cPFKPi31SnrlVuMK-7" value="" style="endArrow=none;html=1;rounded=0;entryX=0.5;entryY=1;entryDx=0;entryDy=0;startArrow=classic;startFill=1;exitX=0.5;exitY=0;exitDx=0;exitDy=0;" parent="1" source="Xp-5jpPCzl7pwucPQ0te-1" target="Xp-5jpPCzl7pwucPQ0te-24" edge="1">
          <mxGeometry width="50" height="50" relative="1" as="geometry">
            <mxPoint x="440" y="270" as="sourcePoint" />
            <mxPoint x="870" y="620" as="targetPoint" />
          </mxGeometry>
        </mxCell>
        <mxCell id="9q41cPFKPi31SnrlVuMK-8" value="" style="endArrow=none;html=1;rounded=0;entryX=0.5;entryY=1;entryDx=0;entryDy=0;startArrow=classic;startFill=1;exitX=0.5;exitY=0;exitDx=0;exitDy=0;" parent="1" source="Xp-5jpPCzl7pwucPQ0te-2" target="Hp_MBzX7ffgGUqmoJXSf-5" edge="1">
          <mxGeometry width="50" height="50" relative="1" as="geometry">
            <mxPoint x="560" y="270" as="sourcePoint" />
            <mxPoint x="510" y="210" as="targetPoint" />
          </mxGeometry>
        </mxCell>
        <mxCell id="9q41cPFKPi31SnrlVuMK-9" value="" style="endArrow=none;html=1;rounded=0;entryX=0.75;entryY=1;entryDx=0;entryDy=0;" parent="1" target="Xp-5jpPCzl7pwucPQ0te-1" edge="1">
          <mxGeometry width="50" height="50" relative="1" as="geometry">
            <mxPoint x="500" y="390" as="sourcePoint" />
            <mxPoint x="870" y="620" as="targetPoint" />
          </mxGeometry>
        </mxCell>
        <mxCell id="9q41cPFKPi31SnrlVuMK-10" value="" style="endArrow=none;html=1;rounded=0;entryX=0.25;entryY=1;entryDx=0;entryDy=0;exitX=0.5;exitY=0;exitDx=0;exitDy=0;" parent="1" source="Xp-5jpPCzl7pwucPQ0te-10" target="Xp-5jpPCzl7pwucPQ0te-2" edge="1">
          <mxGeometry width="50" height="50" relative="1" as="geometry">
            <mxPoint x="510" y="400" as="sourcePoint" />
            <mxPoint x="460" y="340" as="targetPoint" />
          </mxGeometry>
        </mxCell>
        <mxCell id="9q41cPFKPi31SnrlVuMK-11" value="SPI Bus" style="text;html=1;strokeColor=none;fillColor=none;align=center;verticalAlign=middle;whiteSpace=wrap;rounded=0;" parent="1" vertex="1">
          <mxGeometry x="471" y="321" width="60" height="30" as="geometry" />
        </mxCell>
        <mxCell id="9q41cPFKPi31SnrlVuMK-13" value="" style="endArrow=none;html=1;rounded=0;exitX=1;exitY=0.5;exitDx=0;exitDy=0;entryX=0;entryY=0.5;entryDx=0;entryDy=0;" parent="1" source="Xp-5jpPCzl7pwucPQ0te-10" target="Xp-5jpPCzl7pwucPQ0te-3" edge="1">
          <mxGeometry width="50" height="50" relative="1" as="geometry">
            <mxPoint x="820" y="670" as="sourcePoint" />
            <mxPoint x="640" y="430" as="targetPoint" />
          </mxGeometry>
        </mxCell>
        <mxCell id="9q41cPFKPi31SnrlVuMK-14" value="SPI Bus" style="text;html=1;strokeColor=none;fillColor=none;align=center;verticalAlign=middle;whiteSpace=wrap;rounded=0;" parent="1" vertex="1">
          <mxGeometry x="582" y="403" width="60" height="30" as="geometry" />
        </mxCell>
        <mxCell id="9q41cPFKPi31SnrlVuMK-16" value="" style="endArrow=classic;html=1;rounded=0;entryX=0;entryY=0.5;entryDx=0;entryDy=0;endFill=1;" parent="1" source="Xp-5jpPCzl7pwucPQ0te-3" target="Xp-5jpPCzl7pwucPQ0te-8" edge="1">
          <mxGeometry width="50" height="50" relative="1" as="geometry">
            <mxPoint x="820" y="670" as="sourcePoint" />
            <mxPoint x="870" y="620" as="targetPoint" />
          </mxGeometry>
        </mxCell>
        <mxCell id="9q41cPFKPi31SnrlVuMK-17" value="" style="endArrow=classic;html=1;rounded=0;entryX=0;entryY=0.5;entryDx=0;entryDy=0;exitX=0.75;exitY=1;exitDx=0;exitDy=0;endFill=1;" parent="1" source="Xp-5jpPCzl7pwucPQ0te-3" target="Xp-5jpPCzl7pwucPQ0te-13" edge="1">
          <mxGeometry width="50" height="50" relative="1" as="geometry">
            <mxPoint x="745" y="410" as="sourcePoint" />
            <mxPoint x="820" y="346" as="targetPoint" />
          </mxGeometry>
        </mxCell>
        <mxCell id="9q41cPFKPi31SnrlVuMK-18" value="" style="endArrow=classic;html=1;rounded=0;entryX=0.884;entryY=0.995;entryDx=0;entryDy=0;dashed=1;entryPerimeter=0;exitX=0.343;exitY=0.007;exitDx=0;exitDy=0;exitPerimeter=0;startArrow=classic;startFill=1;endFill=1;dashPattern=8 8;strokeColor=#CCCCCC;" parent="1" source="Xp-5jpPCzl7pwucPQ0te-12" target="Xp-5jpPCzl7pwucPQ0te-10" edge="1">
          <mxGeometry width="50" height="50" relative="1" as="geometry">
            <mxPoint x="710" y="600" as="sourcePoint" />
            <mxPoint x="710" y="470" as="targetPoint" />
          </mxGeometry>
        </mxCell>
        <mxCell id="9q41cPFKPi31SnrlVuMK-19" value="" style="endArrow=classic;dashed=1;html=1;rounded=0;entryX=0.5;entryY=1;entryDx=0;entryDy=0;exitX=0.5;exitY=0;exitDx=0;exitDy=0;startArrow=classic;startFill=1;endFill=1;" parent="1" source="Xp-5jpPCzl7pwucPQ0te-30" target="Xp-5jpPCzl7pwucPQ0te-12" edge="1">
          <mxGeometry width="50" height="50" relative="1" as="geometry">
            <mxPoint x="699" y="700" as="sourcePoint" />
            <mxPoint x="697" y="650" as="targetPoint" />
          </mxGeometry>
        </mxCell>
        <mxCell id="9q41cPFKPi31SnrlVuMK-21" value="" style="endArrow=classic;html=1;rounded=0;entryX=0;entryY=0.5;entryDx=0;entryDy=0;endFill=1;exitX=1;exitY=0.5;exitDx=0;exitDy=0;startArrow=classic;startFill=1;" parent="1" source="Xp-5jpPCzl7pwucPQ0te-14" target="Xp-5jpPCzl7pwucPQ0te-4" edge="1">
          <mxGeometry width="50" height="50" relative="1" as="geometry">
            <mxPoint x="310" y="710" as="sourcePoint" />
            <mxPoint x="310" y="660" as="targetPoint" />
          </mxGeometry>
        </mxCell>
        <mxCell id="9q41cPFKPi31SnrlVuMK-22" value="" style="endArrow=classic;html=1;entryX=0;entryY=0.5;entryDx=0;entryDy=0;startArrow=classic;exitX=1;exitY=0.5;exitDx=0;exitDy=0;startFill=1;endFill=1;" parent="1" source="Xp-5jpPCzl7pwucPQ0te-4" target="Xp-5jpPCzl7pwucPQ0te-10" edge="1">
          <mxGeometry width="50" height="50" relative="1" as="geometry">
            <mxPoint x="508" y="600" as="sourcePoint" />
            <mxPoint x="508" y="480" as="targetPoint" />
          </mxGeometry>
        </mxCell>
        <mxCell id="9q41cPFKPi31SnrlVuMK-23" value="" style="endArrow=classic;startArrow=classic;html=1;entryX=0.32;entryY=0.037;entryDx=0;entryDy=0;exitX=0.997;exitY=0.62;exitDx=0;exitDy=0;exitPerimeter=0;dashed=1;strokeColor=#B3B3B3;entryPerimeter=0;" parent="1" source="Xp-5jpPCzl7pwucPQ0te-5" target="Xp-5jpPCzl7pwucPQ0te-4" edge="1">
          <mxGeometry width="50" height="50" relative="1" as="geometry">
            <mxPoint x="230" y="385" as="sourcePoint" />
            <mxPoint x="300" y="460" as="targetPoint" />
            <Array as="points">
              <mxPoint x="280" y="337" />
              <mxPoint x="280" y="360" />
            </Array>
          </mxGeometry>
        </mxCell>
        <mxCell id="9q41cPFKPi31SnrlVuMK-24" value="" style="endArrow=classic;startArrow=classic;html=1;exitX=1;exitY=0.5;exitDx=0;exitDy=0;dashed=1;strokeColor=#B3B3B3;entryX=0.34;entryY=0.983;entryDx=0;entryDy=0;entryPerimeter=0;" parent="1" source="Xp-5jpPCzl7pwucPQ0te-6" edge="1" target="Xp-5jpPCzl7pwucPQ0te-4">
          <mxGeometry width="50" height="50" relative="1" as="geometry">
            <mxPoint x="160" y="336" as="sourcePoint" />
            <mxPoint x="280" y="400" as="targetPoint" />
            <Array as="points">
              <mxPoint x="280" y="535" />
            </Array>
          </mxGeometry>
        </mxCell>
        <mxCell id="9q41cPFKPi31SnrlVuMK-25" value="" style="endArrow=classic;startArrow=classic;html=1;exitX=1;exitY=0.5;exitDx=0;exitDy=0;dashed=1;strokeColor=#B3B3B3;" parent="1" source="Xp-5jpPCzl7pwucPQ0te-18" edge="1">
          <mxGeometry width="50" height="50" relative="1" as="geometry">
            <mxPoint x="190" y="70" as="sourcePoint" />
            <mxPoint x="460" y="390" as="targetPoint" />
            <Array as="points">
              <mxPoint x="340" y="70" />
              <mxPoint x="340" y="350" />
              <mxPoint x="460" y="350" />
            </Array>
          </mxGeometry>
        </mxCell>
        <mxCell id="9q41cPFKPi31SnrlVuMK-26" value="" style="endArrow=classic;startArrow=classic;html=1;exitX=1;exitY=0.5;exitDx=0;exitDy=0;dashed=1;strokeColor=#B3B3B3;" parent="1" source="Xp-5jpPCzl7pwucPQ0te-19" edge="1">
          <mxGeometry width="50" height="50" relative="1" as="geometry">
            <mxPoint x="190" y="150" as="sourcePoint" />
            <mxPoint x="440" y="390" as="targetPoint" />
            <Array as="points">
              <mxPoint x="320" y="150" />
              <mxPoint x="320" y="370" />
              <mxPoint x="440" y="370" />
            </Array>
          </mxGeometry>
        </mxCell>
        <mxCell id="9q41cPFKPi31SnrlVuMK-27" value="SPI Bus" style="text;html=1;strokeColor=none;fillColor=none;align=center;verticalAlign=middle;whiteSpace=wrap;rounded=0;" parent="1" vertex="1">
          <mxGeometry x="230" y="45" width="60" height="30" as="geometry" />
        </mxCell>
        <mxCell id="9q41cPFKPi31SnrlVuMK-28" value="SPI Bus" style="text;html=1;strokeColor=none;fillColor=none;align=center;verticalAlign=middle;whiteSpace=wrap;rounded=0;" parent="1" vertex="1">
          <mxGeometry x="230" y="125" width="60" height="30" as="geometry" />
        </mxCell>
        <mxCell id="9q41cPFKPi31SnrlVuMK-31" value="" style="endArrow=classic;dashed=1;html=1;rounded=1;entryX=0.5;entryY=1;entryDx=0;entryDy=0;endFill=1;exitX=0.75;exitY=0;exitDx=0;exitDy=0;fillColor=#f8cecc;strokeColor=#b85450;" parent="1" source="Xp-5jpPCzl7pwucPQ0te-15" target="Xp-5jpPCzl7pwucPQ0te-13" edge="1">
          <mxGeometry width="50" height="50" relative="1" as="geometry">
            <mxPoint x="340" y="700" as="sourcePoint" />
            <mxPoint x="310" y="660" as="targetPoint" />
            <Array as="points">
              <mxPoint x="330" y="680" />
              <mxPoint x="860" y="680" />
            </Array>
          </mxGeometry>
        </mxCell>
        <mxCell id="5w1QuqMk3YBk4aArFpf6-1" value="12x Output Connector&lt;br style=&quot;border-color: var(--border-color);&quot;&gt;230V" style="rounded=1;whiteSpace=wrap;html=1;fillColor=#1ba1e2;fontColor=#ffffff;strokeColor=#006EAF;" parent="1" vertex="1">
          <mxGeometry x="980" y="710" width="120" height="60" as="geometry" />
        </mxCell>
        <mxCell id="5w1QuqMk3YBk4aArFpf6-2" value="" style="endArrow=none;dashed=1;html=1;rounded=0;endFill=0;entryX=0.331;entryY=1.019;entryDx=0;entryDy=0;entryPerimeter=0;startArrow=classic;startFill=1;" parent="1" target="Xp-5jpPCzl7pwucPQ0te-22" edge="1">
          <mxGeometry width="50" height="50" relative="1" as="geometry">
            <mxPoint x="1020" y="710" as="sourcePoint" />
            <mxPoint x="1020" y="570" as="targetPoint" />
            <Array as="points" />
          </mxGeometry>
        </mxCell>
        <mxCell id="5w1QuqMk3YBk4aArFpf6-4" value="Power Connector&lt;br style=&quot;border-color: var(--border-color);&quot;&gt;230V" style="rounded=1;whiteSpace=wrap;html=1;fillColor=#d80073;strokeColor=#A50040;fontColor=#ffffff;" parent="1" vertex="1">
          <mxGeometry x="980" y="40" width="120" height="60" as="geometry" />
        </mxCell>
        <mxCell id="5w1QuqMk3YBk4aArFpf6-5" value="" style="endArrow=none;dashed=1;html=1;rounded=0;endFill=0;startArrow=classic;startFill=1;fillColor=#a20025;strokeColor=#6F0000;" parent="1" edge="1">
          <mxGeometry width="50" height="50" relative="1" as="geometry">
            <mxPoint x="1050" y="320" as="sourcePoint" />
            <mxPoint x="1050" y="100" as="targetPoint" />
            <Array as="points" />
          </mxGeometry>
        </mxCell>
        <mxCell id="Hp_MBzX7ffgGUqmoJXSf-4" value="8x Temperature Connector" style="rounded=1;whiteSpace=wrap;html=1;fillColor=#1ba1e2;fontColor=#ffffff;strokeColor=#006EAF;" parent="1" vertex="1">
          <mxGeometry x="520" y="40" width="120" height="60" as="geometry" />
        </mxCell>
        <mxCell id="Hp_MBzX7ffgGUqmoJXSf-5" value="8x Voltage Divider" style="rounded=0;whiteSpace=wrap;html=1;fillColor=#e1d5e7;strokeColor=#9673a6;" parent="1" vertex="1">
          <mxGeometry x="520" y="140" width="120" height="60" as="geometry" />
        </mxCell>
        <mxCell id="Hp_MBzX7ffgGUqmoJXSf-6" value="" style="endArrow=none;dashed=1;html=1;rounded=0;entryX=0.5;entryY=1;entryDx=0;entryDy=0;startArrow=classic;startFill=1;" parent="1" source="Hp_MBzX7ffgGUqmoJXSf-5" target="Hp_MBzX7ffgGUqmoJXSf-4" edge="1">
          <mxGeometry width="50" height="50" relative="1" as="geometry">
            <mxPoint x="720" y="140" as="sourcePoint" />
            <mxPoint x="720" y="100" as="targetPoint" />
          </mxGeometry>
        </mxCell>
        <mxCell id="El3161oQZ6qWwcSS69Vg-4" value="" style="endArrow=classic;dashed=1;html=1;rounded=0;entryX=0;entryY=0.5;entryDx=0;entryDy=0;endFill=1;fillColor=#f8cecc;strokeColor=#b85450;" edge="1" parent="1" target="Hp_MBzX7ffgGUqmoJXSf-5">
          <mxGeometry width="50" height="50" relative="1" as="geometry">
            <mxPoint x="480" y="170" as="sourcePoint" />
            <mxPoint x="310" y="660" as="targetPoint" />
            <Array as="points">
              <mxPoint x="480" y="170" />
            </Array>
          </mxGeometry>
        </mxCell>
      </root>
    </mxGraphModel>
  </diagram>
</mxfile>
